#!OML:ASF I:\Actors\actors\Patient Classification 2\Patient 1\Session 1\actor1.ASF
:FULLY-SPECIFIED
:DEGREES
715
root -0.630314 18.7195 5.72367 3.60462 -0.543662 -0.703404
lowerback 10.6805 1.38441 -1.77604
upperback -5.97646 1.65506 0.598458
thorax -12.6249 0.967121 1.30112
lowerneck -3.62752 0.298115 2.33674
upperneck 36.1969 0.282119 -0.512126
head 12.6136 0.402481 -0.577265
rclavicle -4.98398e-015 -3.75206e-015
rhumerus -65.9032 0.156245 -79.6302
rradius 45.2281
rwrist 6.72401
rhand -7.77871 -33.8599
rfingers 7.12502
rthumb 18.1218 -63.0357
lclavicle -4.98398e-015 -3.75206e-015
lhumerus -56.0304 -3.74625 88.998
lradius 47.1436
lwrist 13.6927
lhand -11.0259 -17.4384
lfingers 7.12502
lthumb 14.9956 11.9987
rfemur 0 0 0
rtibia 0
rfoot 0 0
rtoes 0
lfemur -6.18577 -4.26628 -13.4182
ltibia 21.2352
lfoot -23.0222 15.4765
ltoes -55.4269
716
root -0.633182 18.7189 5.72533 3.55996 -0.514712 -0.689778
lowerback 10.5607 1.35299 -1.81513
upperback -6.00323 1.60881 0.603163
thorax -12.5818 0.948946 1.34027
lowerneck -3.72504 0.451999 2.44528
upperneck 35.7994 0.47639 -0.475541
head 12.4661 0.504894 -0.55922
rclavicle 6.82934e-015 4.7553e-015
rhumerus -64.8476 -0.911934 -78.5253
rradius 44.043
rwrist 8.4446
rhand -8.85741 -33.2312
rfingers 7.12502
rthumb 17.0837 -62.5
lclavicle 6.82934e-015 4.7553e-015
lhumerus -55.2044 -2.6851 88.452
lradius 45.9019
lwrist 12.7392
lhand -12.6651 -18.8684
lfingers 7.12502
lthumb 13.4161 10.6796
rfemur 0 0 0
rtibia 0
rfoot 0 0
rtoes 0
lfemur -6.1366 -4.21467 -13.4221
ltibia 21.2273
lfoot -22.9792 15.4539
ltoes -55.5868
717
root -0.633959 18.7174 5.72835 3.4814 -0.531463 -0.687578
lowerback 10.3187 1.32313 -1.89947
upperback -5.92843 1.56257 0.632697
thorax -12.3493 0.933804 1.43506
lowerneck -3.89907 0.593298 2.49889
upperneck 35.3237 0.647617 -0.410908
head 12.3021 0.591913 -0.523419
rclavicle -5.6444e-015 9.94545e-015
rhumerus -63.65 -1.95011 -77.4922
rradius 42.8207
rwrist 9.94117
rhand -10.0468 -32.7714
rfingers 7.12502
rthumb 15.9386 -62.1356
lclavicle -5.6444e-015 9.94545e-015
lhumerus -54.2455 -1.34063 87.7299
lradius 44.9505
lwrist 12.1871
lhand -13.5256 -18.7925
lfingers 7.12502
lthumb 12.5865 10.8083
rfemur 0 0 0
rtibia 0
rfoot 0 0
rtoes 0
lfemur -6.03217 -4.19962 -13.4315
ltibia 21.2279
lfoot -22.9876 15.4574
ltoes -55.6285
718
root -0.634517 18.7165 5.73061 3.40044 -0.573202 -0.701225
lowerback 9.79339 1.25842 -2.13862
upperback -5.6478 1.46481 0.780415
thorax -11.7167 0.907083 1.76194
lowerneck -4.14378 0.749857 2.61238
upperneck 34.6068 0.913317 -0.619125
head 12.0562 0.694137 -0.591514
rclavicle -7.88927e-015 -1.58779e-014
rhumerus -61.9989 -2.9205 -76.4228
rradius 41.4795
rwrist 11.5044
rhand -11.0157 -32.6517
rfingers 7.12502
rthumb 15.0054 -62.088
lclavicle -7.88927e-015 -1.58779e-014
lhumerus -53.065 0.242641 87.0603
lradius 44.0626
lwrist 11.5272
lhand -14.3083 -18.6398
lfingers 7.12502
lthumb 11.8318 11.0059
rfemur 0 0 0
rtibia 0
rfoot 0 0
rtoes 0
lfemur -5.92255 -4.23086 -13.429
ltibia 21.2267
lfoot -23.019 15.5397
ltoes -55.6435
719
root -0.635626 18.7158 5.73182 3.32213 -0.599735 -0.722812
lowerback 10.1583 1.28671 -1.87184
upperback -5.99563 1.51746 0.606776
thorax -12.3244 0.909288 1.40284
lowerneck -3.69488 0.766135 2.94243
upperneck 34.1649 0.940213 -0.746497
head 11.7853 0.731328 -0.695271
rclavicle 7.59342e-015 1.77291e-014
rhumerus -61.6614 -4.43431 -75.2819
rradius 40.4062
rwrist 13.2643
rhand -11.7484 -32.7917
rfingers 7.12502
rthumb 14.2994 -62.2793
lclavicle 7.59342e-015 1.77291e-014
lhumerus -53.0414 0.927407 86.3407
lradius 43.4039
lwrist 10.9478
lhand -14.9648 -18.5675
lfingers 7.12502
lthumb 11.1987 11.1136
rfemur 0 0 0
rtibia 0
rfoot 0 0
rtoes 0
lfemur -5.81415 -4.28123 -13.4146
ltibia 21.2122
lfoot -23.0717 15.6123
ltoes -55.6785
720
root -0.636318 18.7138 5.73327 3.24749 -0.627001 -0.735493
lowerback 10.2358 1.30145 -1.75375
upperback -6.13252 1.54683 0.539141
thorax -12.5242 0.911968 1.25356
lowerneck -3.58959 0.826606 3.08597
upperneck 33.6981 1.02478 -0.79472
head 11.5764 0.778716 -0.728566
rclavicle 2.95351e-014 4.96962e-016
rhumerus -61.1066 -5.99711 -73.9099
rradius 39.6133
rwrist 14.6067
rhand -11.9489 -32.7331
rfingers 7.12502
rthumb 14.1063 -62.2343
lclavicle 2.95351e-014 4.96962e-016
lhumerus -52.6628 1.61501 85.7884
lradius 42.708
lwrist 10.3066
lhand -15.4844 -18.5874
lfingers 7.12502
lthumb 10.6975 11.1202
rfemur 0 0 0
rtibia 0
rfoot 0 0
rtoes 0
lfemur -5.69804 -4.31849 -13.4105
ltibia 21.187
lfoot -23.1098 15.6177
ltoes -55.5994
721
root -0.637926 18.7116 5.73453 3.1762 -0.678091 -0.728183
lowerback 10.1815 1.30244 -1.75404
upperback -6.17419 1.5469 0.521062
thorax -12.5383 0.911516 1.23451
lowerneck -3.63185 0.919719 3.19316
upperneck 33.236 1.14232 -0.800473
head 11.4019 0.840621 -0.735756
rclavicle -1.69122e-014 -3.52843e-015
rhumerus -60.5276 -7.41165 -72.646
rradius 39.1311
rwrist 15.3329
rhand -11.8331 -32.9795
rfingers 7.12502
rthumb 14.2179 -62.4729
lclavicle -1.69122e-014 -3.52843e-015
lhumerus -52.1358 2.32743 85.2976
lradius 41.9709
lwrist 9.50484
lhand -15.7145 -18.6424
lfingers 7.12502
lthumb 10.4755 11.0766
rfemur 0 0 0
rtibia 0
rfoot 0 0
rtoes 0
lfemur -5.5747 -4.33314 -13.426
ltibia 21.1508
lfoot -23.1374 15.6038
ltoes -55.4852
722
root -0.640796 18.7106 5.73469 3.12006 -0.743322 -0.703135
lowerback 10.1315 1.3062 -1.76563
upperback -6.23407 1.54513 0.470286
thorax -12.5752 0.909611 1.18614
lowerneck -3.62197 0.994852 3.34569
upperneck 32.7924 1.21549 -0.764574
head 11.226 0.892562 -0.740649
rclavicle -4.25834e-015 1.32192e-014
rhumerus -60.0743 -8.62553 -71.7014
rradius 38.6696
rwrist 16.2381
rhand -12.249 -33.6531
rfingers 7.12502
rthumb 13.817 -63.1742
lclavicle -4.25834e-015 1.32192e-014
lhumerus -51.6443 2.95618 84.7723
lradius 41.1958
lwrist 8.50639
lhand -15.8606 -18.7606
lfingers 7.12502
lthumb 10.3346 10.9655
rfemur 0 0 0
rtibia 0
rfoot 0 0
rtoes 0
lfemur -5.46715 -4.3441 -13.4573
ltibia 21.102
lfoot -23.1725 15.6179
ltoes -55.4379
723
root -0.641935 18.71 5.73487 3.07265 -0.844154 -0.621922
lowerback 10.0918 1.33581 -1.80722
upperback -6.31081 1.56966 0.386899
thorax -12.639 0.921178 1.11301
lowerneck -3.59577 1.04525 3.41912
upperneck 32.3526 1.24248 -0.649239
head 11.0479 0.92271 -0.70763
rclavicle -2.39473e-014 8.59744e-015
rhumerus -59.6392 -9.76709 -70.7692
rradius 37.9704
rwrist 17.2703
rhand -12.9914 -33.9254
rfingers 7.12502
rthumb 13.1014 -63.4938
lclavicle -2.39473e-014 8.59744e-015
lhumerus -51.2042 3.45401 84.29
lradius 40.424
lwrist 7.45182
lhand -16.1123 -18.8164
lfingers 7.12502
lthumb 10.0918 10.9216
rfemur 0 0 0
rtibia 0
rfoot 0 0
rtoes 0
lfemur -5.36544 -4.33786 -13.5632
ltibia 21.0476
lfoot -23.1955 15.711
ltoes -55.4682
724
root -0.642507 18.7096 5.73483 3.03483 -0.959843 -0.524353
lowerback 10.0262 1.36272 -1.91964
upperback -6.37395 1.58583 0.354794
thorax -12.6752 0.937545 1.13823
lowerneck -3.55906 1.10252 3.41495
upperneck 31.855 1.31869 -0.624259
head 10.8474 0.955296 -0.689559
rclavicle 1.59338e-014 5.81445e-015
rhumerus -59.115 -10.6719 -69.8176
rradius 37.1728
rwrist 18.0413
rhand -13.5792 -33.8387
rfingers 7.12502
rthumb 12.5348 -63.4427
lclavicle 1.59338e-014 5.81445e-015
lhumerus -50.7115 3.9951 83.8878
lradius 39.544
lwrist 6.39964
lhand -16.4648 -18.8604
lfingers 7.12502
lthumb 9.75175 10.8939
rfemur 0 0 0
rtibia 0
rfoot 0 0
rtoes 0
lfemur -5.27698 -4.31322 -13.6884
ltibia 20.9941
lfoot -23.1879 15.8397
ltoes -55.5019
725
root -0.643757 18.7091 5.73423 2.98188 -1.05438 -0.493465
lowerback 9.91609 1.38399 -1.99121
upperback -6.38174 1.60822 0.377473
thorax -12.6207 0.95548 1.20076
lowerneck -3.57169 1.16899 3.38331
upperneck 31.336 1.41283 -0.609088
head 10.6507 0.991833 -0.668527
rclavicle 8.93289e-015 7.15625e-015
rhumerus -58.5093 -11.3456 -68.9998
rradius 36.4163
rwrist 18.9411
rhand -14.027 -33.6625
rfingers 7.12502
rthumb 12.1031 -63.2925
lclavicle 8.93289e-015 7.15625e-015
lhumerus -50.0876 4.5303 83.5455
lradius 38.5626
lwrist 5.32222
lhand -16.8927 -18.8348
lfingers 7.12502
lthumb 9.33892 10.9383
rfemur 0 0 0
rtibia 0
rfoot 0 0
rtoes 0
lfemur -5.17373 -4.3518 -13.7341
ltibia 20.9477
lfoot -23.2436 15.931
ltoes -55.4188
726
root -0.644156 18.7083 5.73444 2.89517 -1.15188 -0.486009
lowerback 9.80267 1.43125 -1.99879
upperback -6.34904 1.67356 0.37906
thorax -12.5162 0.986413 1.19597
lowerneck -3.70295 1.2248 3.34064
upperneck 30.8925 1.4598 -0.491383
head 10.5063 1.01755 -0.612977
rclavicle -1.33186e-014 -9.74045e-015
rhumerus -57.9155 -11.9591 -68.2852
rradius 35.7379
rwrist 20.0396
rhand -14.4143 -33.3136
rfingers 7.12502
rthumb 11.7297 -62.9652
lclavicle -1.33186e-014 -9.74045e-015
lhumerus -49.4437 4.95711 83.2054
lradius 37.6748
lwrist 4.20093
lhand -17.3487 -18.7116
lfingers 7.12502
lthumb 8.89884 11.0808
rfemur 0 0 0
rtibia 0
rfoot 0 0
rtoes 0
lfemur -5.02707 -4.38938 -13.7626
ltibia 20.9073
lfoot -23.3284 16.0054
ltoes -55.3707
727
root -0.643578 18.7072 5.73457 2.82626 -1.24561 -0.492736
lowerback 9.71501 1.46669 -1.99267
upperback -6.35519 1.7238 0.375619
thorax -12.4712 1.00943 1.18023
lowerneck -3.83263 1.27851 3.32523
upperneck 30.5062 1.50625 -0.394863
head 10.3851 1.0442 -0.570334
rclavicle -1.75924e-014 -1.28216e-014
rhumerus -57.3879 -12.4592 -67.5959
rradius 35.1024
rwrist 21.0939
rhand -14.7162 -32.7686
rfingers 7.12502
rthumb 11.4384 -62.4366
lclavicle -1.75924e-014 -1.28216e-014
lhumerus -48.8816 5.57217 82.7237
lradius 36.8532
lwrist 2.96415
lhand -17.7477 -18.6475
lfingers 7.12502
lthumb 8.51386 11.1609
rfemur 0 0 0
rtibia 0
rfoot 0 0
rtoes 0
lfemur -4.90736 -4.3912 -13.7788
ltibia 20.8675
lfoot -23.3682 16.0758
ltoes -55.4028
728
root -0.643349 18.7054 5.73382 2.75176 -1.31484 -0.513652
lowerback 9.68477 1.47687 -1.9746
upperback -6.40079 1.74062 0.374163
thorax -12.5051 1.0164 1.16508
lowerneck -3.85786 1.32278 3.3642
upperneck 30.0817 1.55239 -0.360213
head 10.2313 1.06968 -0.560377
rclavicle -8.62228e-015 7.50412e-015
rhumerus -56.9628 -12.8681 -66.9199
rradius 34.5422
rwrist 22.0245
rhand -14.8976 -32.3242
rfingers 7.12502
rthumb 11.2635 -62.0018
lclavicle -8.62228e-015 7.50412e-015
lhumerus -48.4008 6.39138 82.0798
lradius 36.0268
lwrist 1.66171
lhand -17.9599 -18.7663
lfingers 7.12502
lthumb 8.30905 11.0503
rfemur 0 0 0
rtibia 0
rfoot 0 0
rtoes 0
lfemur -4.79657 -4.40306 -13.7739
ltibia 20.8351
lfoot -23.3874 16.1373
ltoes -55.3969
729
root -0.644231 18.704 5.73301 2.65076 -1.38084 -0.488016
lowerback 9.65626 1.50338 -2.00279
upperback -6.42218 1.7704 0.354177
thorax -12.5139 1.0321 1.15331
lowerneck -3.82404 1.34008 3.4626
upperneck 29.5765 1.57254 -0.392762
head 10.0381 1.08175 -0.587715
rclavicle 8.35517e-015 -1.2921e-015
rhumerus -56.5911 -13.2257 -66.328
rradius 34.1335
rwrist 22.7932
rhand -15.0664 -32.3418
rfingers 7.12502
rthumb 11.1007 -62.0282
lclavicle 8.35517e-015 -1.2921e-015
lhumerus -47.9559 7.09091 81.4649
lradius 35.3389
lwrist 0.546671
lhand -17.9794 -18.9438
lfingers 7.12502
lthumb 8.2902 10.8736
rfemur 0 0 0
rtibia 0
rfoot 0 0
rtoes 0
lfemur -4.66115 -4.42853 -13.8173
ltibia 20.816
lfoot -23.4226 16.2133
ltoes -55.359
